{
  "accessors": [
    {
      "name": "Fornix_fornix-Mesh_0_positions",
      "componentType": 5126,
      "count": 5815,
      "min": [
        -26.0423583984375,
        -28.854005813598633,
        -49.613590240478516
      ],
      "max": [
        39.96919250488281,
        38.28181457519531,
        41.82607650756836
      ],
      "type": "VEC3",
      "bufferView": 0,
      "byteOffset": 0
    },
    {
      "name": "Fornix_fornix-Mesh_0_normals",
      "componentType": 5126,
      "count": 5815,
      "min": [
        -0.9997705221176147,
        -0.999883234500885,
        -0.9999148845672607
      ],
      "max": [
        0.9989770650863647,
        0.9998563528060913,
        1
      ],
      "type": "VEC3",
      "bufferView": 1,
      "byteOffset": 0
    },
    {
      "name": "Fornix_fornix-Mesh_0_indices",
      "componentType": 5123,
      "count": 34788,
      "min": [
        0
      ],
      "max": [
        5814
      ],
      "type": "SCALAR",
      "bufferView": 2,
      "byteOffset": 0
    }
  ],
  "asset": {
    "generator": "obj2gltf",
    "version": "2.0"
  },
  "buffers": [
    {
      "name": "Fornix",
      "byteLength": 209136,
      "uri": "data:application/octet-stream;base64,"
    }
  ],
  "bufferViews": [
    {
      "name": "bufferView_0",
      "buffer": 0,
      "byteLength": 69780,
      "byteOffset": 0,
      "byteStride": 12,
      "target": 34962
    },
    {
      "name": "bufferView_1",
      "buffer": 0,
      "byteLength": 69780,
      "byteOffset": 69780,
      "byteStride": 12,
      "target": 34962
    },
    {
      "name": "bufferView_2",
      "buffer": 0,
      "byteLength": 69576,
      "byteOffset": 139560,
      "target": 34963
    }
  ],
  "materials": [
    {
      "name": "Material.004",
      "pbrMetallicRoughness": {
        "baseColorFactor": [
          0.64,
          0.64,
          0.64,
          1
        ],
        "metallicFactor": 0,
        "roughnessFactor": 0.905882353
      },
      "emissiveFactor": [
        0,
        0,
        0
      ],
      "alphaMode": "OPAQUE",
      "doubleSided": false
    }
  ],
  "meshes": [
    {
      "name": "Fornix_fornix-Mesh",
      "primitives": [
        {
          "attributes": {
            "POSITION": 0,
            "NORMAL": 1
          },
          "indices": 2,
          "material": 0,
          "mode": 4
        }
      ]
    }
  ],
  "nodes": [
    {
      "name": "Fornix_fornix",
      "mesh": 0
    }
  ],
  "scene": 0,
  "scenes": [
    {
      "nodes": [
        0
      ]
    }
  ]
}
