{
  "accessors": [
    {
      "name": "L-caudate_caudate-nucleus-Mesh_0_positions",
      "componentType": 5126,
      "count": 5024,
      "min": [
        -53.97222900390625,
        -6.112448215484619,
        4.482789993286133
      ],
      "max": [
        35.845367431640625,
        48.053890228271484,
        35.54522705078125
      ],
      "type": "VEC3",
      "bufferView": 0,
      "byteOffset": 0
    },
    {
      "name": "L-caudate_caudate-nucleus-Mesh_0_normals",
      "componentType": 5126,
      "count": 5024,
      "min": [
        -0.9991079568862915,
        -0.9985676407814026,
        -0.9999621510505676
      ],
      "max": [
        0.9979413747787476,
        0.9986305236816406,
        0.9998847246170044
      ],
      "type": "VEC3",
      "bufferView": 1,
      "byteOffset": 0
    },
    {
      "name": "L-caudate_caudate-nucleus-Mesh_0_indices",
      "componentType": 5123,
      "count": 30162,
      "min": [
        0
      ],
      "max": [
        5023
      ],
      "type": "SCALAR",
      "bufferView": 2,
      "byteOffset": 0
    }
  ],
  "asset": {
    "generator": "obj2gltf",
    "version": "2.0"
  },
  "buffers": [
    {
      "name": "L-Caudate",
      "byteLength": 180900,
      "uri": "data:application/octet-stream;base64,"
    }
  ],
  "bufferViews": [
    {
      "name": "bufferView_0",
      "buffer": 0,
      "byteLength": 60288,
      "byteOffset": 0,
      "byteStride": 12,
      "target": 34962
    },
    {
      "name": "bufferView_1",
      "buffer": 0,
      "byteLength": 60288,
      "byteOffset": 60288,
      "byteStride": 12,
      "target": 34962
    },
    {
      "name": "bufferView_2",
      "buffer": 0,
      "byteLength": 60324,
      "byteOffset": 120576,
      "target": 34963
    }
  ],
  "materials": [
    {
      "name": "None.006",
      "pbrMetallicRoughness": {
        "baseColorFactor": [
          0.64,
          0.64,
          0.64,
          1
        ],
        "metallicFactor": 0,
        "roughnessFactor": 0.905882353
      },
      "emissiveFactor": [
        0,
        0,
        0
      ],
      "alphaMode": "OPAQUE",
      "doubleSided": false
    }
  ],
  "meshes": [
    {
      "name": "L-caudate_caudate-nucleus-Mesh",
      "primitives": [
        {
          "attributes": {
            "POSITION": 0,
            "NORMAL": 1
          },
          "indices": 2,
          "material": 0,
          "mode": 4
        }
      ]
    }
  ],
  "nodes": [
    {
      "name": "L-caudate_caudate-nucleus",
      "mesh": 0
    }
  ],
  "scene": 0,
  "scenes": [
    {
      "nodes": [
        0
      ]
    }
  ]
}
