{
  "accessors": [
    {
      "name": "R-caudate_RIGHT-caudate-Mesh_0_positions",
      "componentType": 5126,
      "count": 5268,
      "min": [
        -55.13043212890625,
        -7.489491939544678,
        -37.70835876464844
      ],
      "max": [
        33.70615768432617,
        45.94133377075195,
        -7.2701239585876465
      ],
      "type": "VEC3",
      "bufferView": 0,
      "byteOffset": 0
    },
    {
      "name": "R-caudate_RIGHT-caudate-Mesh_0_normals",
      "componentType": 5126,
      "count": 5268,
      "min": [
        -0.999876081943512,
        -0.9999963641166687,
        -0.9999912977218628
      ],
      "max": [
        0.9981274008750916,
        0.9994761943817139,
        0.9999937415122986
      ],
      "type": "VEC3",
      "bufferView": 1,
      "byteOffset": 0
    },
    {
      "name": "R-caudate_RIGHT-caudate-Mesh_0_indices",
      "componentType": 5123,
      "count": 30948,
      "min": [
        0
      ],
      "max": [
        5267
      ],
      "type": "SCALAR",
      "bufferView": 2,
      "byteOffset": 0
    }
  ],
  "asset": {
    "generator": "obj2gltf",
    "version": "2.0"
  },
  "buffers": [
    {
      "name": "R-Caudate",
      "byteLength": 188328,
      "uri": "data:application/octet-stream;base64,"
    }
  ],
  "bufferViews": [
    {
      "name": "bufferView_0",
      "buffer": 0,
      "byteLength": 63216,
      "byteOffset": 0,
      "byteStride": 12,
      "target": 34962
    },
    {
      "name": "bufferView_1",
      "buffer": 0,
      "byteLength": 63216,
      "byteOffset": 63216,
      "byteStride": 12,
      "target": 34962
    },
    {
      "name": "bufferView_2",
      "buffer": 0,
      "byteLength": 61896,
      "byteOffset": 126432,
      "target": 34963
    }
  ],
  "materials": [
    {
      "name": "Material.005",
      "pbrMetallicRoughness": {
        "baseColorFactor": [
          0.64,
          0.64,
          0.64,
          1
        ],
        "metallicFactor": 0,
        "roughnessFactor": 0.905882353
      },
      "emissiveFactor": [
        0,
        0,
        0
      ],
      "alphaMode": "OPAQUE",
      "doubleSided": false
    }
  ],
  "meshes": [
    {
      "name": "R-caudate_RIGHT-caudate-Mesh",
      "primitives": [
        {
          "attributes": {
            "POSITION": 0,
            "NORMAL": 1
          },
          "indices": 2,
          "material": 0,
          "mode": 4
        }
      ]
    }
  ],
  "nodes": [
    {
      "name": "R-caudate_RIGHT-caudate",
      "mesh": 0
    }
  ],
  "scene": 0,
  "scenes": [
    {
      "nodes": [
        0
      ]
    }
  ]
}
