{
  "accessors": [
    {
      "name": "Hippocampus_hippocampus.001-Mesh_0_positions",
      "componentType": 5126,
      "count": 5316,
      "min": [
        -13.971504211425781,
        -29.997838973999023,
        -49.8446159362793
      ],
      "max": [
        40.79314422607422,
        14.426018714904785,
        46.00943374633789
      ],
      "type": "VEC3",
      "bufferView": 0,
      "byteOffset": 0
    },
    {
      "name": "Hippocampus_hippocampus.001-Mesh_0_normals",
      "componentType": 5126,
      "count": 5316,
      "min": [
        -0.9988433122634888,
        -0.9988332390785217,
        -0.9999513030052185
      ],
      "max": [
        0.9999855756759644,
        0.9972168207168579,
        1
      ],
      "type": "VEC3",
      "bufferView": 1,
      "byteOffset": 0
    },
    {
      "name": "Hippocampus_hippocampus.001-Mesh_0_indices",
      "componentType": 5123,
      "count": 31893,
      "min": [
        0
      ],
      "max": [
        5315
      ],
      "type": "SCALAR",
      "bufferView": 2,
      "byteOffset": 0
    }
  ],
  "asset": {
    "generator": "obj2gltf",
    "version": "2.0"
  },
  "buffers": [
    {
      "name": "Hippocampus",
      "byteLength": 191372,
      "uri": "data:application/octet-stream;base64,"
    }
  ],
  "bufferViews": [
    {
      "name": "bufferView_0",
      "buffer": 0,
      "byteLength": 63792,
      "byteOffset": 0,
      "byteStride": 12,
      "target": 34962
    },
    {
      "name": "bufferView_1",
      "buffer": 0,
      "byteLength": 63792,
      "byteOffset": 63792,
      "byteStride": 12,
      "target": 34962
    },
    {
      "name": "bufferView_2",
      "buffer": 0,
      "byteLength": 63788,
      "byteOffset": 127584,
      "target": 34963
    }
  ],
  "materials": [
    {
      "name": "Material.003",
      "pbrMetallicRoughness": {
        "baseColorFactor": [
          0.64,
          0.64,
          0.64,
          1
        ],
        "metallicFactor": 0,
        "roughnessFactor": 0.905882353
      },
      "emissiveFactor": [
        0,
        0,
        0
      ],
      "alphaMode": "OPAQUE",
      "doubleSided": false
    }
  ],
  "meshes": [
    {
      "name": "Hippocampus_hippocampus.001-Mesh",
      "primitives": [
        {
          "attributes": {
            "POSITION": 0,
            "NORMAL": 1
          },
          "indices": 2,
          "material": 0,
          "mode": 4
        }
      ]
    }
  ],
  "nodes": [
    {
      "name": "Hippocampus_hippocampus.001",
      "mesh": 0
    }
  ],
  "scene": 0,
  "scenes": [
    {
      "nodes": [
        0
      ]
    }
  ]
}
