{
  "accessors": [
    {
      "name": "Thalamus.001-Mesh_0_positions",
      "componentType": 5126,
      "count": 7671,
      "min": [
        -20.07074737548828,
        5.5414719581604,
        -35.65420913696289
      ],
      "max": [
        34.37897491455078,
        37.03078842163086,
        38.14522933959961
      ],
      "type": "VEC3",
      "bufferView": 0,
      "byteOffset": 0
    },
    {
      "name": "Thalamus.001-Mesh_0_normals",
      "componentType": 5126,
      "count": 7671,
      "min": [
        -0.9997612833976746,
        -0.99998939037323,
        -0.9996616840362549
      ],
      "max": [
        0.9998555779457092,
        0.9994713664054871,
        0.9998167157173157
      ],
      "type": "VEC3",
      "bufferView": 1,
      "byteOffset": 0
    },
    {
      "name": "Thalamus.001-Mesh_0_indices",
      "componentType": 5123,
      "count": 46014,
      "min": [
        0
      ],
      "max": [
        7670
      ],
      "type": "SCALAR",
      "bufferView": 2,
      "byteOffset": 0
    }
  ],
  "asset": {
    "generator": "obj2gltf",
    "version": "2.0"
  },
  "buffers": [
    {
      "name": "Thalamus",
      "byteLength": 276132,
      "uri": "data:application/octet-stream;base64,"
    }
  ],
  "bufferViews": [
    {
      "name": "bufferView_0",
      "buffer": 0,
      "byteLength": 92052,
      "byteOffset": 0,
      "byteStride": 12,
      "target": 34962
    },
    {
      "name": "bufferView_1",
      "buffer": 0,
      "byteLength": 92052,
      "byteOffset": 92052,
      "byteStride": 12,
      "target": 34962
    },
    {
      "name": "bufferView_2",
      "buffer": 0,
      "byteLength": 92028,
      "byteOffset": 184104,
      "target": 34963
    }
  ],
  "materials": [
    {
      "name": "None.010",
      "pbrMetallicRoughness": {
        "baseColorFactor": [
          0.64,
          0.64,
          0.64,
          1
        ],
        "metallicFactor": 0,
        "roughnessFactor": 0.905882353
      },
      "emissiveFactor": [
        0,
        0,
        0
      ],
      "alphaMode": "OPAQUE",
      "doubleSided": false
    }
  ],
  "meshes": [
    {
      "name": "Thalamus.001-Mesh",
      "primitives": [
        {
          "attributes": {
            "POSITION": 0,
            "NORMAL": 1
          },
          "indices": 2,
          "material": 0,
          "mode": 4
        }
      ]
    }
  ],
  "nodes": [
    {
      "name": "Thalamus.001",
      "mesh": 0
    }
  ],
  "scene": 0,
  "scenes": [
    {
      "nodes": [
        0
      ]
    }
  ]
}
