{
  "accessors": [
    {
      "name": "Circle_of_Willis_Mehrdad-Arteries-SWI-MRI-OBJ-v1.000-Mesh_0_positions",
      "componentType": 5126,
      "count": 26526,
      "min": [
        -53.00895690917969,
        -116.94380950927734,
        -69.12908935546875
      ],
      "max": [
        77.54916381835938,
        20.14695930480957,
        68.00277709960938
      ],
      "type": "VEC3",
      "bufferView": 0,
      "byteOffset": 0
    },
    {
      "name": "Circle_of_Willis_Mehrdad-Arteries-SWI-MRI-OBJ-v1.000-Mesh_0_normals",
      "componentType": 5126,
      "count": 26526,
      "min": [
        -0.999981701374054,
        -0.9999864101409912,
        -0.9999674558639526
      ],
      "max": [
        0.9999706149101257,
        0.9999995231628418,
        1
      ],
      "type": "VEC3",
      "bufferView": 1,
      "byteOffset": 0
    },
    {
      "name": "Circle_of_Willis_Mehrdad-Arteries-SWI-MRI-OBJ-v1.000-Mesh_0_indices",
      "componentType": 5123,
      "count": 157761,
      "min": [
        0
      ],
      "max": [
        26525
      ],
      "type": "SCALAR",
      "bufferView": 2,
      "byteOffset": 0
    }
  ],
  "asset": {
    "generator": "obj2gltf",
    "version": "2.0"
  },
  "buffers": [
    {
      "name": "Arteries",
      "byteLength": 952148,
      "uri": "data:application/octet-stream;base64,"
    }
  ],
  "bufferViews": [
    {
      "name": "bufferView_0",
      "buffer": 0,
      "byteLength": 318312,
      "byteOffset": 0,
      "byteStride": 12,
      "target": 34962
    },
    {
      "name": "bufferView_1",
      "buffer": 0,
      "byteLength": 318312,
      "byteOffset": 318312,
      "byteStride": 12,
      "target": 34962
    },
    {
      "name": "bufferView_2",
      "buffer": 0,
      "byteLength": 315524,
      "byteOffset": 636624,
      "target": 34963
    }
  ],
  "materials": [
    {
      "name": "Material.001",
      "pbrMetallicRoughness": {
        "baseColorFactor": [
          0.64,
          0.64,
          0.64,
          1
        ],
        "metallicFactor": 0,
        "roughnessFactor": 0.905882353
      },
      "emissiveFactor": [
        0,
        0,
        0
      ],
      "alphaMode": "OPAQUE",
      "doubleSided": false
    }
  ],
  "meshes": [
    {
      "name": "Circle_of_Willis_Mehrdad-Arteries-SWI-MRI-OBJ-v1.000-Mesh",
      "primitives": [
        {
          "attributes": {
            "POSITION": 0,
            "NORMAL": 1
          },
          "indices": 2,
          "material": 0,
          "mode": 4
        }
      ]
    }
  ],
  "nodes": [
    {
      "name": "Circle_of_Willis_Mehrdad-Arteries-SWI-MRI-OBJ-v1.000",
      "mesh": 0
    }
  ],
  "scene": 0,
  "scenes": [
    {
      "nodes": [
        0
      ]
    }
  ]
}
