# File produced by Open Asset Import Library (http://www.assimp.sf.net)
# (assimp v3.1.187496374)

mtllib right_substantia_nigra.obj.mtl

# 125 vertex positions
v  -1.5787 -1.49968 0.431333
v  -1.62468 -1.45882 0.4123
v  -1.57972 -1.44919 0.403511
v  -1.52732 -1.45295 0.418057
v  -1.57908 -1.60176 0.51913
v  -1.62718 -1.54412 0.470927
v  -1.53226 -1.54412 0.480988
v  -1.65299 -1.40412 0.401932
v  -1.57972 -1.40173 0.396648
v  -1.68338 -1.4516 0.438205
v  -1.62718 -1.35427 0.39837
v  -1.68245 -1.35665 0.413248
v  -1.76101 -1.384 0.460426
v  -1.52727 -1.39832 0.420925
v  -1.56421 -1.34351 0.417955
v  -1.67523 -1.30499 0.419414
v  -1.62353 -1.30258 0.420248
v  -1.78315 -1.28881 0.4578
v  -1.72797 -1.30181 0.440055
v  -1.67464 -1.25935 0.451337
v  -1.58349 -1.29355 0.52153
v  -1.62783 -1.2437 0.523622
v  -1.5145 -1.38828 0.522427
v  -1.65051 -1.2824 0.622614
v  -1.57921 -1.39125 0.622029
v  -1.6735 -1.19446 0.522525
v  -1.72671 -1.16564 0.6225
v  -1.69111 -1.29039 0.656387
v  -1.7788 -1.14123 0.648401
v  -1.54556 -1.46384 0.629238
v  -1.48818 -1.44926 0.522171
v  -1.47988 -1.4991 0.521624
v  -1.49582 -1.54412 0.52233
v  -1.52802 -1.49677 0.623167
v  -1.53439 -1.5857 0.521602
v  -1.53679 -1.58955 0.622895
v  -1.52555 -1.54276 0.626279
v  -1.63068 -1.54261 0.721014
v  -1.57972 -1.59158 0.66999
v  -1.63798 -1.49204 0.706112
v  -1.58558 -1.63814 0.622452
v  -1.62728 -1.59842 0.521197
v  -1.62795 -1.65005 0.620828
v  -1.62364 -1.65152 0.72281
v  -1.61661 -1.59177 0.724241
v  -1.75194 -1.58693 0.809563
v  -1.71545 -1.52848 0.780776
v  -1.67482 -1.64403 0.621828
v  -1.67109 -1.69435 0.723013
v  -1.70605 -1.64181 0.772464
v  -1.67422 -1.579 0.526241
v  -1.73446 -1.62333 0.638796
v  -1.719 -1.69857 0.723469
v  -1.81657 -1.59459 0.817709
v  -1.77802 -1.67516 0.722468
v  -1.72883 -1.53092 0.522435
v  -1.81579 -1.55239 0.639796
v  -1.68306 -1.52568 0.480937
v  -1.85728 -1.37917 0.520217
v  -1.91783 -1.44256 0.639613
v  -1.83858 -1.43202 0.548272
v  -1.80768 -1.65869 0.723434
v  -1.88657 -1.58393 0.721647
v  -1.87439 -1.58354 0.766394
v  -1.96081 -1.50014 0.722753
v  -1.98708 -1.36673 0.646362
v  -2.06301 -1.37164 0.722509
v  -1.93102 -1.27848 0.525238
v  -2.01605 -1.29806 0.631768
v  -1.9507 -1.22252 0.516366
v  -2.04381 -1.26496 0.644198
v  -2.04624 -1.22641 0.632729
v  -2.09685 -1.30666 0.722369
v  -2.11057 -1.25999 0.721874
v  -2.10693 -1.20791 0.723598
v  -2.04211 -1.16443 0.62232
v  -1.96937 -1.16191 0.521547
v  -2.05433 -1.16443 0.672315
v  -2.05967 -1.14996 0.723901
v  -2.10179 -1.25935 0.772305
v  -2.05405 -1.21556 0.821118
v  -2.08012 -1.25703 0.826966
v  -2.00829 -1.21895 0.821332
v  -2.00272 -1.13843 0.726773
v  -2.00687 -1.11697 0.675763
v  -1.95517 -1.12299 0.698605
v  -1.96575 -1.24268 0.823034
v  -2.01208 -1.27238 0.840701
v  -2.04325 -1.3118 0.837382
v  -1.89191 -1.4238 0.840869
v  -1.92974 -1.33249 0.838857
v  -2.05081 -1.35854 0.823403
v  -1.92798 -1.434 0.839712
v  -2.07806 -1.30681 0.8223
v  -1.95743 -1.47191 0.822297
v  -1.87274 -1.5535 0.825134
v  -1.82357 -1.54252 0.831092
v  -1.78198 -1.54096 0.821487
v  -1.84262 -1.41675 0.824778
v  -1.8955 -1.31998 0.822261
v  -1.68718 -1.42013 0.708887
v  -1.85352 -1.28214 0.767235
v  -1.79188 -1.28709 0.717064
v  -1.85127 -1.20756 0.713136
v  -1.88902 -1.16362 0.7061
v  -1.91565 -1.09288 0.668985
v  -1.86207 -1.04045 0.624656
v  -1.95926 -1.04353 0.625057
v  -2.00552 -1.08017 0.622373
v  -1.91195 -1.03353 0.62232
v  -1.95941 -1.06951 0.572325
v  -1.91046 -1.06987 0.522391
v  -2.02866 -1.11312 0.619786
v  -1.96108 -1.11571 0.52186
v  -1.9163 -1.18619 0.494596
v  -1.89777 -1.13323 0.493621
v  -1.75342 -1.22909 0.460947
v  -1.73733 -1.19587 0.477267
v  -1.8384 -1.1159 0.494575
v  -1.72173 -1.14582 0.521613
v  -1.76946 -1.104 0.52134
v  -1.8654 -1.06176 0.52093
v  -1.81742 -1.07686 0.5221
v  -1.76753 -1.11168 0.622886
v  -1.81668 -1.06427 0.622554

# 0 UV coordinates

# 125 vertex normals
vn 0.0753072 -0.568899 -0.818952
vn -0.252793 -0.449103 -0.856973
vn 0.0395961 -0.304638 -0.951645
vn 0.610575 -0.215881 -0.761966
vn 0.108242 -0.779834 -0.616558
vn -0.183418 -0.617718 -0.76471
vn 0.497125 -0.539763 -0.679355
vn -0.28398 -0.166497 -0.944264
vn 0.202852 0.0392384 -0.978423
vn -0.471809 -0.378174 -0.79648
vn -0.0239024 0.20969 -0.977476
vn -0.352224 0.0684875 -0.933406
vn -0.46398 -0.208337 -0.860998
vn 0.784834 0.275807 -0.554946
vn 0.573277 0.528832 -0.625851
vn -0.186722 0.376492 -0.907407
vn 0.338466 0.652502 -0.677999
vn -0.321665 0.0144669 -0.946743
vn -0.210396 0.255687 -0.943588
vn 0.186693 0.595704 -0.781206
vn 0.752568 0.650606 0.10175
vn 0.68727 0.717614 -0.112651
vn 0.850666 0.493772 0.180432
vn 0.672398 0.489267 0.555426
vn 0.67384 0.427182 0.602872
vn 0.707899 0.679227 -0.193725
vn 0.714104 0.544764 0.439645
vn 0.516359 0.347539 0.782682
vn 0.441518 0.408874 0.798676
vn 0.684291 0.283399 0.671886
vn 0.972752 0.230721 0.0228255
vn 0.997219 -0.0590658 -0.04545
vn 0.92411 -0.379493 -0.0447814
vn 0.84545 0.0628954 0.530338
vn 0.571263 -0.752343 -0.328083
vn 0.792693 -0.527661 0.305306
vn 0.75754 0.00593557 0.652762
vn 0.665667 0.205996 0.717253
vn 0.740073 -0.256037 0.621882
vn 0.588286 0.286009 0.756385
vn 0.549075 -0.835164 0.0319074
vn -0.167216 -0.798117 -0.578833
vn -0.0212922 -0.949775 -0.312208
vn 0.596489 -0.65831 0.459161
vn 0.729081 -0.0352263 0.68352
vn 0.408557 -0.115873 0.905348
vn 0.549164 0.244512 0.799145
vn -0.0956358 -0.907032 -0.410057
vn 0.220694 -0.974921 0.0286833
vn 0.242892 -0.496944 0.833097
vn -0.385653 -0.727209 -0.567837
vn -0.38792 -0.723543 -0.570967
vn -0.122395 -0.970989 0.205428
vn -0.156636 -0.592032 0.790546
vn -0.464128 -0.855035 -0.231302
vn -0.570759 -0.572925 -0.58821
vn -0.519015 -0.577111 -0.630529
vn -0.428534 -0.546325 -0.719644
vn -0.565603 -0.418591 -0.710545
vn -0.595219 -0.512578 -0.618852
vn -0.639416 -0.509168 -0.576104
vn -0.594102 -0.801986 -0.0621453
vn -0.675265 -0.649618 -0.349305
vn -0.644838 -0.700944 0.304731
vn -0.754043 -0.639647 -0.149236
vn -0.630158 -0.459352 -0.626016
vn -0.802215 -0.537943 -0.258977
vn -0.667289 -0.379518 -0.640852
vn -0.688257 -0.355127 -0.632604
vn -0.566186 -0.234653 -0.790172
vn -0.755256 -0.22359 -0.616114
vn -0.822465 -0.10729 -0.558606
vn -0.937392 -0.338472 -0.0820493
vn -0.921981 -0.16453 -0.350544
vn -0.943367 0.292826 -0.155921
vn -0.930617 0.249631 -0.267648
vn -0.702508 0.0200509 -0.711393
vn -0.76419 0.605232 -0.222954
vn -0.413511 0.874172 0.25462
vn -0.948049 0.051212 0.313974
vn -0.521744 0.567902 0.636608
vn -0.577315 0.0828649 0.812306
vn 0.0500274 0.552153 0.83224
vn -0.106403 0.886132 0.451053
vn -0.607176 0.719044 0.338102
vn 0.00858808 0.733448 0.679692
vn 0.354278 0.50695 0.785804
vn 0.00939441 0.168205 0.985707
vn -0.230424 -0.0889832 0.969013
vn 0.11137 0.0310886 0.993293
vn 0.249632 0.190732 0.949371
vn -0.527013 -0.365387 0.7673
vn -0.133543 -0.147358 0.980027
vn -0.803021 -0.287361 0.522094
vn -0.683316 -0.598564 0.418091
vn -0.326512 -0.415695 0.848874
vn 0.0608235 -0.135388 0.988924
vn 0.318963 0.018996 0.947577
vn 0.398094 0.204123 0.894346
vn 0.490011 0.34325 0.801292
vn 0.553711 0.361327 0.750231
vn 0.55888 0.44902 0.697162
vn 0.539263 0.408694 0.736318
vn 0.483963 0.442618 0.754897
vn 0.324052 0.526827 0.785776
vn 0.0828458 0.594256 0.799997
vn 0.242103 0.89102 0.384017
vn -0.360697 0.906171 0.220797
vn -0.636135 0.754988 0.159138
vn -0.0329345 0.959871 0.2785
vn -0.585884 0.660135 -0.470065
vn -0.253016 0.783105 -0.568093
vn -0.872358 0.408542 -0.268488
vn -0.557027 0.329676 -0.762257
vn -0.376809 -0.0133852 -0.926194
vn -0.19252 0.230088 -0.953937
vn 0.0162856 0.317475 -0.948127
vn 0.308693 0.50298 -0.807292
vn 0.111074 0.418153 -0.90156
vn 0.692901 0.679136 -0.242205
vn 0.476732 0.702088 -0.52896
vn 0.0216775 0.72045 -0.693168
vn 0.440677 0.812537 -0.381558
vn 0.658569 0.691685 0.296411
vn 0.545081 0.729494 0.413189

# Mesh 'right_substantia_nigra_right_substantia_nigra' with 246 faces
g right_substantia_nigra_right_substantia_nigra
usemtl DefaultMaterial
f  1//1 2//2 3//3
f  3//3 4//4 1//1
f  1//1 5//5 6//6
f  1//1 7//7 5//5
f  6//6 2//2 1//1
f  4//4 7//7 1//1
f  2//2 8//8 3//3
f  9//9 3//3 8//8
f  3//3 9//9 4//4
f  10//10 8//8 2//2
f  11//11 8//8 12//12
f  8//8 11//11 9//9
f  8//8 10//10 13//13
f  8//8 13//13 12//12
f  14//14 4//4 9//9
f  15//15 9//9 11//11
f  9//9 15//15 14//14
f  12//12 16//16 11//11
f  17//17 11//11 16//16
f  11//11 17//17 15//15
f  13//13 18//18 12//12
f  19//19 12//12 18//18
f  19//19 16//16 12//12
f  16//16 19//19 20//20
f  16//16 20//20 17//17
f  17//17 21//21 15//15
f  22//22 17//17 20//20
f  21//21 17//17 22//22
f  14//14 15//15 23//23
f  23//23 15//15 21//21
f  21//21 24//24 25//25
f  23//23 21//21 25//25
f  24//24 21//21 22//22
f  20//20 26//26 22//22
f  26//26 24//24 22//22
f  24//24 26//26 27//27
f  24//24 28//28 25//25
f  28//28 24//24 29//29
f  27//27 29//29 24//24
f  25//25 30//30 23//23
f  25//25 28//28 30//30
f  23//23 31//31 14//14
f  31//31 23//23 30//30
f  4//4 31//31 32//32
f  4//4 14//14 31//31
f  32//32 31//31 30//30
f  4//4 32//32 7//7
f  33//33 7//7 32//32
f  32//32 34//34 33//33
f  30//30 34//34 32//32
f  35//35 5//5 7//7
f  35//35 7//7 33//33
f  35//35 33//33 36//36
f  37//37 36//36 33//33
f  37//37 33//33 34//34
f  34//34 30//30 37//37
f  37//37 38//38 39//39
f  36//36 37//37 39//39
f  38//38 37//37 40//40
f  30//30 40//40 37//37
f  36//36 41//41 35//35
f  39//39 41//41 36//36
f  5//5 35//35 41//41
f  42//42 6//6 5//5
f  5//5 41//41 42//42
f  43//43 42//42 41//41
f  43//43 41//41 44//44
f  44//44 41//41 45//45
f  39//39 45//45 41//41
f  45//45 39//39 38//38
f  45//45 46//46 44//44
f  46//46 45//45 47//47
f  38//38 47//47 45//45
f  43//43 44//44 48//48
f  49//49 48//48 44//44
f  50//50 49//49 44//44
f  50//50 44//44 46//46
f  48//48 51//51 43//43
f  42//42 43//43 51//51
f  51//51 48//48 52//52
f  48//48 49//49 52//52
f  53//53 52//52 49//49
f  53//53 49//49 50//50
f  50//50 54//54 53//53
f  54//54 50//50 46//46
f  52//52 53//53 55//55
f  55//55 53//53 54//54
f  56//56 52//52 57//57
f  52//52 56//56 51//51
f  52//52 55//55 57//57
f  56//56 58//58 51//51
f  58//58 42//42 51//51
f  59//59 58//58 56//56
f  60//60 56//56 57//57
f  61//61 56//56 60//60
f  59//59 56//56 61//61
f  57//57 62//62 63//63
f  62//62 57//57 55//55
f  60//60 57//57 63//63
f  54//54 62//62 55//55
f  54//54 64//64 62//62
f  63//63 62//62 64//64
f  60//60 63//63 65//65
f  64//64 65//65 63//63
f  61//61 60//60 66//66
f  60//60 65//65 67//67
f  67//67 66//66 60//60
f  66//66 68//68 61//61
f  59//59 61//61 68//68
f  69//69 68//68 66//66
f  67//67 69//69 66//66
f  68//68 70//70 59//59
f  71//71 68//68 69//69
f  71//71 72//72 68//68
f  70//70 68//68 72//72
f  73//73 69//69 67//67
f  74//74 69//69 73//73
f  71//71 69//69 74//74
f  74//74 75//75 71//71
f  72//72 71//71 75//75
f  76//76 77//77 72//72
f  70//70 72//72 77//77
f  72//72 75//75 78//78
f  78//78 76//76 72//72
f  78//78 75//75 79//79
f  74//74 80//80 75//75
f  75//75 80//80 81//81
f  81//81 79//79 75//75
f  74//74 73//73 80//80
f  80//80 73//73 82//82
f  82//82 81//81 80//80
f  81//81 83//83 79//79
f  81//81 82//82 83//83
f  79//79 84//84 78//78
f  84//84 79//79 83//83
f  85//85 78//78 84//84
f  78//78 85//85 76//76
f  85//85 84//84 86//86
f  83//83 87//87 84//84
f  86//86 84//84 87//87
f  88//88 83//83 82//82
f  83//83 88//88 87//87
f  89//89 90//90 88//88
f  91//91 88//88 90//90
f  89//89 88//88 82//82
f  87//87 88//88 91//91
f  92//92 93//93 89//89
f  90//90 89//89 93//93
f  94//94 92//92 89//89
f  94//94 89//89 82//82
f  92//92 67//67 95//95
f  94//94 67//67 92//92
f  93//93 92//92 96//96
f  95//95 96//96 92//92
f  96//96 97//97 93//93
f  90//90 93//93 97//97
f  64//64 54//54 96//96
f  96//96 95//95 64//64
f  97//97 96//96 54//54
f  65//65 64//64 95//95
f  67//67 65//65 95//95
f  73//73 67//67 94//94
f  94//94 82//82 73//73
f  46//46 98//98 54//54
f  97//97 54//54 98//98
f  97//97 98//98 90//90
f  47//47 98//98 46//46
f  98//98 47//47 99//99
f  99//99 90//90 98//98
f  90//90 99//99 91//91
f  100//100 99//99 47//47
f  100//100 91//91 99//99
f  38//38 40//40 47//47
f  101//101 100//100 47//47
f  47//47 40//40 101//101
f  100//100 101//101 102//102
f  87//87 100//100 102//102
f  91//91 100//100 87//87
f  40//40 30//30 101//101
f  101//101 30//30 28//28
f  28//28 103//103 101//101
f  103//103 102//102 101//101
f  104//104 87//87 102//102
f  103//103 104//104 102//102
f  105//105 86//86 87//87
f  105//105 87//87 104//104
f  103//103 28//28 104//104
f  29//29 104//104 28//28
f  29//29 105//105 104//104
f  106//106 86//86 105//105
f  107//107 106//106 105//105
f  105//105 29//29 107//107
f  86//86 108//108 109//109
f  85//85 86//86 109//109
f  86//86 106//106 108//108
f  106//106 110//110 108//108
f  110//110 106//106 107//107
f  108//108 111//111 109//109
f  111//111 108//108 112//112
f  110//110 112//112 108//108
f  111//111 113//113 109//109
f  109//109 113//113 85//85
f  113//113 76//76 85//85
f  77//77 76//76 113//113
f  113//113 114//114 77//77
f  113//113 111//111 114//114
f  114//114 111//111 112//112
f  77//77 114//114 115//115
f  116//116 115//115 114//114
f  112//112 116//116 114//114
f  70//70 77//77 115//115
f  70//70 115//115 13//13
f  18//18 13//13 115//115
f  116//116 18//18 115//115
f  59//59 70//70 13//13
f  59//59 13//13 10//10
f  10//10 58//58 59//59
f  58//58 10//10 2//2
f  6//6 42//42 58//58
f  2//2 6//6 58//58
f  18//18 116//116 19//19
f  117//117 20//20 19//19
f  117//117 19//19 116//116
f  117//117 118//118 20//20
f  116//116 119//119 117//117
f  117//117 119//119 118//118
f  26//26 20//20 118//118
f  118//118 120//120 26//26
f  121//121 118//118 119//119
f  118//118 121//121 120//120
f  119//119 116//116 122//122
f  119//119 122//122 123//123
f  119//119 123//123 121//121
f  122//122 116//116 112//112
f  122//122 112//112 107//107
f  122//122 107//107 123//123
f  121//121 123//123 124//124
f  125//125 124//124 123//123
f  107//107 125//125 123//123
f  121//121 124//124 120//120
f  120//120 27//27 26//26
f  124//124 27//27 120//120
f  27//27 124//124 29//29
f  29//29 124//124 125//125
f  125//125 107//107 29//29
f  107//107 112//112 110//110

