{
  "accessors": [
    {
      "name": "Ventricles_ventricles-Mesh_0_positions",
      "componentType": 5126,
      "count": 24771,
      "min": [
        -63.40821838378906,
        -63.23162841796875,
        -54.20024490356445
      ],
      "max": [
        106.68356323242188,
        49.8522834777832,
        51.575401306152344
      ],
      "type": "VEC3",
      "bufferView": 0,
      "byteOffset": 0
    },
    {
      "name": "Ventricles_ventricles-Mesh_0_normals",
      "componentType": 5126,
      "count": 24771,
      "min": [
        -0.9998530745506287,
        -0.9999801516532898,
        -0.999995768070221
      ],
      "max": [
        0.9989053606987,
        0.9998398423194885,
        0.9999984502792358
      ],
      "type": "VEC3",
      "bufferView": 1,
      "byteOffset": 0
    },
    {
      "name": "Ventricles_ventricles-Mesh_0_indices",
      "componentType": 5123,
      "count": 146868,
      "min": [
        0
      ],
      "max": [
        24770
      ],
      "type": "SCALAR",
      "bufferView": 2,
      "byteOffset": 0
    }
  ],
  "asset": {
    "generator": "obj2gltf",
    "version": "2.0"
  },
  "buffers": [
    {
      "name": "Ventricles",
      "byteLength": 888240,
      "uri": "data:application/octet-stream;base64,"
    }
  ],
  "bufferViews": [
    {
      "name": "bufferView_0",
      "buffer": 0,
      "byteLength": 297252,
      "byteOffset": 0,
      "byteStride": 12,
      "target": 34962
    },
    {
      "name": "bufferView_1",
      "buffer": 0,
      "byteLength": 297252,
      "byteOffset": 297252,
      "byteStride": 12,
      "target": 34962
    },
    {
      "name": "bufferView_2",
      "buffer": 0,
      "byteLength": 293736,
      "byteOffset": 594504,
      "target": 34963
    }
  ],
  "materials": [
    {
      "name": "None.009",
      "pbrMetallicRoughness": {
        "baseColorFactor": [
          0.64,
          0.64,
          0.64,
          1
        ],
        "metallicFactor": 0,
        "roughnessFactor": 0.907843137
      },
      "emissiveFactor": [
        0,
        0,
        0
      ],
      "alphaMode": "OPAQUE",
      "doubleSided": false
    }
  ],
  "meshes": [
    {
      "name": "Ventricles_ventricles-Mesh",
      "primitives": [
        {
          "attributes": {
            "POSITION": 0,
            "NORMAL": 1
          },
          "indices": 2,
          "material": 0,
          "mode": 4
        }
      ]
    }
  ],
  "nodes": [
    {
      "name": "Ventricles_ventricles",
      "mesh": 0
    }
  ],
  "scene": 0,
  "scenes": [
    {
      "nodes": [
        0
      ]
    }
  ]
}
